<svg width="320" height="320" viewBox="0 0 320 320" fill="none" xmlns="http://www.w3.org/2000/svg">
<path d="M125.277 165.731V152.857H128.461V154.4C128.696 154.016 128.992 153.672 129.337 153.383C129.882 152.93 130.547 152.647 131.25 152.569C131.584 152.536 131.922 152.519 132.27 152.519H132.714V155.998C132.403 155.946 132.089 155.921 131.774 155.922C131.352 155.861 130.922 155.899 130.518 156.034C130.113 156.169 129.745 156.396 129.444 156.698C129.142 157 128.914 157.368 128.779 157.773C128.644 158.178 128.605 158.61 128.664 159.033V165.731H125.277Z" fill="white"/>
<path d="M142.364 165.731C142.253 165.355 142.184 164.968 142.158 164.577C141.72 165.06 141.174 165.432 140.566 165.664C139.834 165.948 139.055 166.086 138.271 166.071C137.103 166.174 135.94 165.824 135.022 165.093C134.68 164.766 134.411 164.369 134.234 163.93C134.056 163.491 133.973 163.019 133.991 162.545C133.956 161.782 134.109 161.022 134.435 160.332C134.718 159.797 135.141 159.349 135.659 159.038C136.239 158.704 136.87 158.47 137.526 158.345C138.249 158.196 139.034 158.062 139.888 157.936C140.488 157.89 141.074 157.724 141.609 157.447C141.758 157.326 141.876 157.17 141.952 156.994C142.029 156.817 142.061 156.625 142.048 156.433C142.034 156.241 141.974 156.055 141.874 155.891C141.773 155.727 141.635 155.59 141.47 155.492C140.983 155.234 140.436 155.112 139.886 155.139C139.584 155.11 139.281 155.142 138.992 155.231C138.703 155.321 138.434 155.467 138.201 155.66C137.849 156.043 137.625 156.528 137.563 157.046H134.407C134.417 156.424 134.526 155.807 134.731 155.219C134.927 154.666 135.259 154.171 135.696 153.78C136.202 153.348 136.795 153.03 137.434 152.849C138.282 152.613 139.16 152.503 140.04 152.522C140.909 152.504 141.775 152.619 142.609 152.862C143.244 153.047 143.825 153.382 144.304 153.84C144.741 154.283 145.059 154.829 145.23 155.428C145.431 156.13 145.528 156.857 145.518 157.586V165.726L142.364 165.731ZM142.133 159.427C141.916 159.623 141.657 159.766 141.375 159.844C140.903 159.983 140.423 160.096 139.939 160.183C139.224 160.275 138.539 160.525 137.932 160.916C137.747 161.072 137.601 161.269 137.506 161.492C137.411 161.714 137.369 161.956 137.384 162.198C137.384 163.158 137.931 163.638 139.026 163.638C139.441 163.642 139.852 163.566 140.238 163.413C140.951 163.148 141.533 162.613 141.857 161.923C142.022 161.584 142.105 161.211 142.101 160.834L142.133 159.427Z" fill="white"/>
<path d="M156.403 165.731V157.933C156.482 157.226 156.307 156.513 155.908 155.924C155.675 155.727 155.405 155.579 155.114 155.488C154.822 155.398 154.516 155.368 154.213 155.4C152.456 155.4 151.578 156.385 151.577 158.357V165.734H148.183V152.857H151.422V154.74C151.785 154.046 152.337 153.471 153.014 153.079C154.344 152.448 155.863 152.345 157.266 152.791C157.768 152.965 158.226 153.248 158.606 153.621C158.991 154.002 159.292 154.46 159.492 154.965C159.721 155.553 159.833 156.18 159.82 156.811V165.732L156.403 165.731Z" fill="white"/>
<path d="M171.432 164.005C171.17 164.599 170.701 165.077 170.114 165.35C169.428 165.687 168.672 165.854 167.909 165.838C166.984 165.869 166.064 165.676 165.228 165.277C164.538 164.929 163.94 164.423 163.483 163.799C163.026 163.163 162.697 162.443 162.514 161.681C162.315 160.877 162.214 160.052 162.214 159.224C162.204 158.292 162.354 157.365 162.659 156.485C162.924 155.711 163.331 154.992 163.857 154.366C164.35 153.795 164.955 153.332 165.634 153.005C166.319 152.678 167.069 152.511 167.827 152.516C168.546 152.48 169.262 152.642 169.896 152.983C170.531 153.324 171.06 153.833 171.428 154.453V152.856H174.82V165.862C174.838 166.744 174.669 167.621 174.325 168.434C174.016 169.148 173.552 169.784 172.966 170.295C172.368 170.803 171.678 171.19 170.932 171.434C170.124 171.698 169.278 171.829 168.428 171.824C167.587 171.832 166.75 171.704 165.95 171.445C165.23 171.218 164.561 170.854 163.979 170.373C163.429 169.912 162.988 169.336 162.686 168.684C162.363 167.979 162.202 167.21 162.216 166.433H165.374C165.354 166.776 165.413 167.118 165.546 167.433C165.679 167.749 165.882 168.03 166.141 168.254C166.727 168.704 167.454 168.931 168.192 168.895C169.02 168.921 169.832 168.657 170.486 168.148C170.792 167.91 171.037 167.602 171.2 167.25C171.363 166.898 171.441 166.512 171.426 166.124L171.432 164.005ZM168.639 163.168C169.034 163.175 169.425 163.092 169.784 162.927C170.142 162.761 170.459 162.516 170.711 162.211C171.295 161.474 171.59 160.548 171.537 159.607C171.537 156.849 170.571 155.47 168.638 155.472C166.705 155.474 165.74 156.784 165.742 159.403C165.691 160.385 165.98 161.354 166.561 162.145C166.803 162.468 167.117 162.728 167.478 162.906C167.839 163.084 168.237 163.173 168.639 163.168Z" fill="white"/>
<path d="M180.584 160.183C180.59 161.033 180.891 161.854 181.437 162.505C181.69 162.79 182.003 163.015 182.352 163.165C182.702 163.315 183.081 163.386 183.461 163.372C183.977 163.381 184.485 163.25 184.932 162.994C185.133 162.881 185.31 162.729 185.451 162.546C185.592 162.364 185.695 162.154 185.753 161.93H189.253C188.921 163.159 188.185 164.239 187.165 164.995C186.127 165.726 184.881 166.103 183.613 166.069C179.335 166.069 177.196 163.733 177.195 159.06C177.182 158.144 177.324 157.232 177.614 156.363C177.871 155.597 178.284 154.893 178.825 154.295C179.366 153.711 180.033 153.258 180.775 152.973C181.617 152.654 182.511 152.498 183.411 152.515C184.258 152.457 185.106 152.6 185.888 152.931C186.67 153.263 187.363 153.773 187.912 154.422C189.052 156.115 189.59 158.144 189.439 160.18L180.584 160.183ZM185.931 158.04C185.924 157.613 185.841 157.191 185.688 156.793C185.556 156.46 185.356 156.158 185.1 155.907C184.864 155.672 184.578 155.493 184.264 155.382C183.955 155.27 183.63 155.214 183.302 155.214C182.972 155.211 182.646 155.275 182.342 155.404C182.039 155.532 181.765 155.722 181.538 155.961C181.01 156.525 180.707 157.265 180.685 158.038L185.931 158.04Z" fill="white"/>
<path d="M196.5 165.731H192.43L196.736 159.165L192.561 152.857H196.658L200.701 159.165L196.5 165.731Z" fill="white"/>
<path d="M205.484 152.857H201.548L200.059 155.396L201.87 158.219L205.484 152.857Z" fill="white"/>
<path d="M205.617 165.731L201.869 160.109L199.952 163.108L201.468 165.726L205.617 165.731Z" fill="white"/>
<path d="M128.506 149.061H125.302V132.085H189.004V135.298H128.506V149.061Z" fill="white"/>
<path d="M185.797 169.583H189.003V186.553H125.277V183.343H185.797V169.583Z" fill="white"/>
<circle cx="160" cy="160" r="85.9149" stroke="url(#paint0_radial_312_1993)" stroke-width="12"/>
<circle cx="160" cy="160" r="152" stroke="url(#paint1_radial_312_1993)" stroke-width="16"/>
<defs>
<radialGradient id="paint0_radial_312_1993" cx="0" cy="0" r="1" gradientUnits="userSpaceOnUse" gradientTransform="translate(160 160) rotate(90) scale(91.9149)">
<stop offset="0.739583" stop-color="#3879B9"/>
<stop offset="1" stop-color="#3879B9" stop-opacity="0"/>
</radialGradient>
<radialGradient id="paint1_radial_312_1993" cx="0" cy="0" r="1" gradientUnits="userSpaceOnUse" gradientTransform="translate(160 160) rotate(90) scale(160)">
<stop offset="0.526042" stop-color="#3879B9"/>
<stop offset="1" stop-color="#3879B9" stop-opacity="0"/>
</radialGradient>
</defs>
</svg>
