<svg width="142" height="95" viewBox="0 0 142 95" fill="none" xmlns="http://www.w3.org/2000/svg">
<path d="M0 58.6821V36.2285H5.62815V38.9203C6.04324 38.249 6.56633 37.6493 7.17679 37.1449C8.14038 36.3562 9.31564 35.8628 10.5584 35.7254C11.1486 35.6679 11.7452 35.6381 12.3612 35.6381H13.1452V41.7059C12.5964 41.6158 12.0409 41.5717 11.4846 41.5738C10.7389 41.4675 9.97844 41.5344 9.26344 41.7694C8.54845 42.0043 7.89858 42.4007 7.36524 42.9272C6.8319 43.4537 6.42975 44.0959 6.19068 44.8028C5.95161 45.5098 5.88216 46.2621 5.98783 47.0002V58.6821H0Z" fill="white"/>
<path d="M30.2019 58.6821C30.0049 58.027 29.8828 57.3521 29.8379 56.6701C29.0634 57.5122 28.0989 58.1614 27.0228 58.5648C25.7306 59.0608 24.3527 59.3019 22.967 59.2745C20.9029 59.4544 18.8477 58.8442 17.2247 57.5695C16.6204 56.9986 16.1454 56.3073 15.8313 55.5412C15.5172 54.7751 15.371 53.9518 15.4025 53.1256C15.3411 51.7949 15.6104 50.4697 16.1865 49.2658C16.6866 48.3322 17.4351 47.5516 18.3512 47.0087C19.3754 46.4268 20.4907 46.0184 21.6509 45.8003C22.9282 45.5402 24.3153 45.3058 25.8252 45.0863C26.8865 45.0069 27.9208 44.7169 28.8665 44.2337C29.1302 44.0225 29.3384 43.7515 29.4735 43.4436C29.6086 43.1357 29.6666 42.8001 29.6425 42.4653C29.6184 42.1305 29.5129 41.8064 29.335 41.5205C29.1572 41.2347 28.9122 40.9956 28.6209 40.8236C27.7601 40.3739 26.7931 40.1612 25.8209 40.2077C25.2886 40.1581 24.7517 40.2129 24.2409 40.3691C23.7301 40.5253 23.2555 40.7797 22.8442 41.1177C22.2206 41.786 21.8257 42.6316 21.7156 43.5346H16.137C16.1552 42.4491 16.3486 41.3734 16.7099 40.3483C17.0566 39.383 17.6433 38.5196 18.4158 37.8376C19.31 37.0845 20.3576 36.5305 21.4873 36.2135C22.9866 35.8019 24.5389 35.6102 26.0945 35.6444C27.6296 35.6127 29.1606 35.8125 30.6349 36.237C31.7571 36.5599 32.7845 37.1446 33.6309 37.942C34.4025 38.7153 34.9654 39.6681 35.2679 40.7128C35.6229 41.936 35.7942 43.2042 35.7762 44.4767V58.6735L30.2019 58.6821ZM29.7927 47.6864C29.4098 48.0297 28.951 48.2794 28.453 48.4154C27.6186 48.6574 26.7716 48.8545 25.9157 49.0058C24.6519 49.1662 23.4401 49.6031 22.3682 50.2846C22.0411 50.5562 21.7831 50.9 21.6147 51.2883C21.4464 51.6767 21.3725 52.0986 21.3989 52.5203C21.3989 54.1941 22.3668 55.0311 24.3024 55.0311C25.0351 55.0393 25.7623 54.9061 26.4434 54.6389C27.7043 54.1768 28.732 53.2441 29.3059 52.0408C29.5969 51.4496 29.7443 50.7993 29.7367 50.1418L29.7927 47.6864Z" fill="white"/>
<path d="M55.0148 58.6821V45.082C55.1554 43.8482 54.8452 42.6053 54.1403 41.5781C53.7289 41.234 53.2514 40.9756 52.7366 40.8185C52.2218 40.6614 51.6802 40.6088 51.1443 40.6638C48.0398 40.6638 46.4868 42.383 46.4854 45.8216V58.6885H40.4868V36.2285H46.2119V39.5128C46.8536 38.3034 47.829 37.299 49.0248 36.6164C51.3756 35.5151 54.0606 35.3353 56.5398 36.1134C57.4277 36.4171 58.2367 36.9113 58.9091 37.5606C59.5891 38.2266 60.1223 39.0249 60.4749 39.905C60.8801 40.9304 61.077 42.0247 61.0544 43.1255V58.6842L55.0148 58.6821Z" fill="white"/>
<path d="M81.579 55.6726C81.1158 56.7083 80.2873 57.5417 79.2484 58.0171C78.0371 58.6054 76.7011 58.8977 75.3521 58.8696C73.7163 58.9228 72.0913 58.5873 70.6135 57.8913C69.3943 57.2843 68.3374 56.4006 67.5291 55.3124C66.7214 54.2028 66.1399 52.9483 65.8168 51.6188C65.4648 50.2167 65.2868 48.7774 65.2868 47.3327C65.2678 45.7076 65.5338 44.0915 66.073 42.5564C66.5418 41.2055 67.2598 39.9524 68.1903 38.8606C69.0615 37.8644 70.1304 37.0562 71.3307 36.4863C72.5417 35.9169 73.867 35.6255 75.2077 35.6337C76.4787 35.5716 77.7426 35.8533 78.864 36.4485C79.9854 37.0436 80.9218 37.9299 81.5725 39.012V36.2263H87.5667V58.9101C87.5989 60.4499 87.3009 61.979 86.6922 63.3965C86.1466 64.6424 85.3261 65.7515 84.2907 66.6426C83.2335 67.5286 82.0127 68.2032 80.6958 68.629C79.2668 69.0892 77.7723 69.3188 76.2696 69.3089C74.7828 69.3239 73.3033 69.1008 71.8885 68.6482C70.6173 68.2517 69.4349 67.6171 68.4057 66.779C67.4345 65.9752 66.6542 64.9695 66.1205 63.8335C65.5495 62.603 65.2654 61.2613 65.2891 59.9075H70.8719C70.8368 60.5042 70.9406 61.1009 71.1755 61.6515C71.4104 62.2022 71.77 62.692 72.2267 63.0833C73.2636 63.8679 74.548 64.2636 75.8518 64.2001C77.3158 64.2471 78.7504 63.7865 79.9076 62.8978C80.4477 62.4823 80.88 61.9454 81.1688 61.3317C81.4576 60.7179 81.5945 60.0449 81.5682 59.3683L81.579 55.6726ZM76.6423 54.2126C77.34 54.224 78.0314 54.0799 78.6652 53.791C79.2991 53.5021 79.859 53.0759 80.3038 52.5438C81.3373 51.2585 81.8572 49.6419 81.7642 48.0019C81.7642 43.1908 80.0561 40.7866 76.64 40.7895C73.2239 40.7923 71.5181 43.0778 71.5224 47.646C71.4311 49.3579 71.9427 51.0482 72.9698 52.4287C73.3973 52.9906 73.9525 53.445 74.5905 53.755C75.2286 54.0649 75.9315 54.2217 76.6423 54.2126Z" fill="white"/>
<path d="M97.7547 49.0058C97.7645 50.4884 98.2979 51.9208 99.2624 53.0553C99.7095 53.5525 100.262 53.9459 100.88 54.2074C101.499 54.469 102.168 54.5923 102.84 54.5686C103.751 54.5842 104.649 54.3559 105.44 53.9079C105.796 53.7119 106.108 53.4465 106.358 53.1278C106.607 52.8091 106.789 52.4437 106.892 52.0536H113.078C112.491 54.196 111.19 56.0796 109.386 57.399C107.551 58.6739 105.35 59.3307 103.109 59.2724C95.5477 59.2724 91.7661 55.1973 91.7647 47.0471C91.7414 45.449 91.9921 43.8585 92.5057 42.3432C92.9604 41.0079 93.6892 39.7802 94.6466 38.7371C95.6019 37.7175 96.781 36.9286 98.0929 36.4309C99.5803 35.8735 101.162 35.6022 102.752 35.6317C104.248 35.5312 105.748 35.78 107.129 36.3578C108.511 36.9357 109.736 37.8266 110.706 38.9587C112.721 41.9109 113.672 45.4489 113.405 49.0015L97.7547 49.0058ZM107.206 45.2675C107.193 44.5234 107.047 43.7874 106.775 43.0935C106.542 42.5123 106.188 41.9859 105.737 41.5483C105.319 41.1382 104.815 40.8251 104.259 40.6318C103.714 40.4374 103.138 40.3386 102.558 40.3398C101.976 40.3335 101.399 40.4458 100.863 40.6699C100.326 40.8939 99.8425 41.2248 99.4412 41.642C98.5078 42.6267 97.9714 43.9157 97.9335 45.2653L107.206 45.2675Z" fill="white"/>
<path d="M125.887 58.6821H118.693L126.302 47.2304L118.923 36.2285H126.165L133.311 47.2304L125.887 58.6821Z" fill="white"/>
<path d="M141.765 36.2284H134.808L132.176 40.6574L135.377 45.5807L141.765 36.2284Z" fill="white"/>
<path d="M142 58.6821L135.375 48.8779L131.987 54.1082L134.666 58.6736L142 58.6821Z" fill="white"/>
<path d="M5.70788 29.6085H0.0452881V-7.62939e-06H112.636V5.60327H5.70788V29.6085Z" fill="white"/>
<path d="M106.969 65.4022H112.636V95H0V89.401H106.969V65.4022Z" fill="white"/>
</svg>
