<svg width="166" height="95" viewBox="0 0 166 95" fill="none" xmlns="http://www.w3.org/2000/svg">
<path d="M24 58.6821V36.2285H29.6281V38.9203C30.0432 38.2491 30.5663 37.6493 31.1768 37.1449C32.1404 36.3562 33.3156 35.8629 34.5584 35.7254C35.1486 35.6679 35.7452 35.6381 36.3612 35.6381H37.1452V41.7059C36.5964 41.6158 36.0409 41.5717 35.4846 41.5738C34.7389 41.4675 33.9784 41.5345 33.2634 41.7694C32.5484 42.0043 31.8986 42.4007 31.3652 42.9272C30.8319 43.4537 30.4298 44.0959 30.1907 44.8028C29.9516 45.5098 29.8822 46.2621 29.9878 47.0002V58.6821H24Z" fill="white"/>
<path d="M54.2019 58.6821C54.0049 58.027 53.8828 57.3521 53.8379 56.6701C53.0634 57.5122 52.0989 58.1614 51.0228 58.5648C49.7306 59.0608 48.3527 59.3019 46.967 59.2746C44.9029 59.4544 42.8477 58.8442 41.2247 57.5695C40.6204 56.9986 40.1454 56.3073 39.8313 55.5412C39.5172 54.7751 39.371 53.9518 39.4025 53.1256C39.3411 51.7949 39.6104 50.4697 40.1865 49.2658C40.6866 48.3322 41.4351 47.5516 42.3512 47.0087C43.3754 46.4269 44.4907 46.0184 45.6509 45.8003C46.9282 45.5402 48.3153 45.3058 49.8252 45.0863C50.8865 45.0069 51.9208 44.7169 52.8665 44.2337C53.1302 44.0225 53.3384 43.7515 53.4735 43.4436C53.6086 43.1357 53.6666 42.8001 53.6425 42.4653C53.6184 42.1305 53.5129 41.8064 53.335 41.5206C53.1572 41.2347 52.9122 40.9957 52.6209 40.8236C51.7601 40.374 50.7931 40.1612 49.8209 40.2077C49.2886 40.1581 48.7517 40.2129 48.2409 40.3691C47.7301 40.5253 47.2555 40.7797 46.8442 41.1177C46.2206 41.786 45.8257 42.6316 45.7156 43.5346H40.137C40.1552 42.4491 40.3486 41.3734 40.7099 40.3483C41.0566 39.383 41.6433 38.5196 42.4158 37.8376C43.31 37.0845 44.3576 36.5306 45.4873 36.2135C46.9866 35.8019 48.5389 35.6102 50.0945 35.6444C51.6296 35.6127 53.1606 35.8126 54.6349 36.237C55.7571 36.56 56.7845 37.1447 57.6309 37.942C58.4025 38.7154 58.9654 39.6681 59.2679 40.7128C59.6229 41.936 59.7942 43.2042 59.7762 44.4767V58.6736L54.2019 58.6821ZM53.7927 47.6865C53.4098 48.0297 52.951 48.2794 52.453 48.4154C51.6186 48.6574 50.7716 48.8545 49.9157 49.0058C48.6519 49.1662 47.4401 49.6031 46.3682 50.2846C46.0411 50.5563 45.7831 50.9 45.6147 51.2884C45.4464 51.6767 45.3725 52.0986 45.3989 52.5203C45.3989 54.1941 46.3668 55.0311 48.3024 55.0311C49.0351 55.0393 49.7623 54.9061 50.4434 54.6389C51.7043 54.1768 52.732 53.2441 53.3059 52.0408C53.5969 51.4496 53.7443 50.7993 53.7367 50.1418L53.7927 47.6865Z" fill="white"/>
<path d="M79.0148 58.6821V45.082C79.1554 43.8482 78.8452 42.6053 78.1403 41.5781C77.7289 41.234 77.2514 40.9756 76.7366 40.8185C76.2218 40.6614 75.6802 40.6088 75.1443 40.6638C72.0398 40.6638 70.4868 42.383 70.4854 45.8216V58.6885H64.4868V36.2285H70.2119V39.5128C70.8536 38.3034 71.829 37.299 73.0248 36.6164C75.3756 35.5151 78.0606 35.3353 80.5398 36.1134C81.4277 36.4171 82.2367 36.9113 82.9091 37.5606C83.5891 38.2266 84.1223 39.0249 84.4749 39.905C84.8801 40.9304 85.077 42.0247 85.0544 43.1255V58.6842L79.0148 58.6821Z" fill="white"/>
<path d="M105.579 55.6726C105.116 56.7083 104.287 57.5417 103.248 58.0171C102.037 58.6054 100.701 58.8977 99.3521 58.8696C97.7163 58.9228 96.0913 58.5873 94.6135 57.8913C93.3943 57.2843 92.3374 56.4006 91.5291 55.3124C90.7214 54.2028 90.1399 52.9483 89.8168 51.6188C89.4648 50.2167 89.2868 48.7774 89.2868 47.3327C89.2678 45.7076 89.5338 44.0915 90.073 42.5564C90.5418 41.2055 91.2598 39.9524 92.1903 38.8606C93.0615 37.8644 94.1304 37.0562 95.3307 36.4863C96.5417 35.9169 97.867 35.6255 99.2077 35.6337C100.479 35.5716 101.743 35.8533 102.864 36.4485C103.985 37.0436 104.922 37.9299 105.573 39.012V36.2263H111.567V58.9101C111.599 60.4499 111.301 61.979 110.692 63.3965C110.147 64.6424 109.326 65.7515 108.291 66.6426C107.234 67.5286 106.013 68.2032 104.696 68.629C103.267 69.0892 101.772 69.3188 100.27 69.3089C98.7828 69.3239 97.3033 69.1008 95.8885 68.6482C94.6173 68.2517 93.4349 67.6171 92.4057 66.779C91.4345 65.9752 90.6542 64.9695 90.1205 63.8335C89.5495 62.603 89.2654 61.2613 89.2891 59.9075H94.8719C94.8368 60.5042 94.9406 61.1009 95.1755 61.6515C95.4104 62.2022 95.77 62.692 96.2267 63.0833C97.2636 63.8679 98.548 64.2636 99.8518 64.2001C101.316 64.2471 102.75 63.7865 103.908 62.8978C104.448 62.4823 104.88 61.9454 105.169 61.3317C105.458 60.7179 105.595 60.0449 105.568 59.3683L105.579 55.6726ZM100.642 54.2126C101.34 54.224 102.031 54.0799 102.665 53.791C103.299 53.5021 103.859 53.0759 104.304 52.5438C105.337 51.2585 105.857 49.6419 105.764 48.0019C105.764 43.1908 104.056 40.7866 100.64 40.7895C97.2239 40.7923 95.5181 43.0778 95.5224 47.646C95.4311 49.3579 95.9427 51.0482 96.9698 52.4287C97.3973 52.9906 97.9525 53.445 98.5905 53.755C99.2286 54.0649 99.9315 54.2217 100.642 54.2126Z" fill="white"/>
<path d="M121.755 49.0058C121.765 50.4884 122.298 51.9208 123.262 53.0553C123.71 53.5525 124.262 53.9459 124.88 54.2074C125.499 54.469 126.168 54.5923 126.84 54.5686C127.751 54.5842 128.649 54.3559 129.44 53.9079C129.796 53.7119 130.108 53.4465 130.358 53.1278C130.607 52.8091 130.789 52.4437 130.892 52.0536H137.078C136.491 54.196 135.19 56.0795 133.386 57.399C131.551 58.6739 129.35 59.3307 127.109 59.2724C119.548 59.2724 115.766 55.1973 115.765 47.0471C115.741 45.449 115.992 43.8585 116.506 42.3432C116.96 41.0079 117.689 39.7801 118.647 38.7371C119.602 37.7175 120.781 36.9285 122.093 36.4309C123.58 35.8735 125.162 35.6022 126.752 35.6317C128.248 35.5312 129.748 35.78 131.129 36.3578C132.511 36.9357 133.736 37.8266 134.706 38.9587C136.721 41.9109 137.672 45.4489 137.405 49.0015L121.755 49.0058ZM131.206 45.2675C131.193 44.5234 131.047 43.7874 130.775 43.0934C130.542 42.5123 130.188 41.9859 129.737 41.5483C129.319 41.1382 128.815 40.8251 128.259 40.6318C127.714 40.4374 127.138 40.3386 126.558 40.3398C125.976 40.3335 125.399 40.4458 124.863 40.6699C124.326 40.8939 123.843 41.2248 123.441 41.642C122.508 42.6267 121.971 43.9157 121.933 45.2653L131.206 45.2675Z" fill="white"/>
<path d="M149.887 58.6821H142.693L150.302 47.2304L142.923 36.2285H150.165L157.311 47.2304L149.887 58.6821Z" fill="white"/>
<path d="M165.765 36.2284H158.808L156.176 40.6574L159.377 45.5807L165.765 36.2284Z" fill="white"/>
<path d="M166 58.6821L159.375 48.8779L155.987 54.1082L158.666 58.6736L166 58.6821Z" fill="white"/>
<path d="M29.7079 29.6085H24.0453V0H136.636V5.60328H29.7079V29.6085Z" fill="white"/>
<path d="M130.969 65.4022H136.636V95H24V89.401H130.969V65.4022Z" fill="white"/>
</svg>
