<svg width="76" height="46" viewBox="0 0 76 46" fill="none" xmlns="http://www.w3.org/2000/svg">
<path d="M4 28.4145V17.5422H6.69517V18.8456C6.89395 18.5206 7.14444 18.2302 7.43677 17.986C7.89821 17.604 8.46101 17.3652 9.05615 17.2986C9.33876 17.2707 9.62448 17.2563 9.91947 17.2563H10.2949V20.1944C10.0321 20.1508 9.76607 20.1294 9.49966 20.1305C9.14258 20.079 8.77841 20.1114 8.43601 20.2252C8.09362 20.3389 7.78242 20.5308 7.52702 20.7858C7.27161 21.0407 7.07904 21.3517 6.96455 21.694C6.85006 22.0363 6.81681 22.4006 6.86741 22.758V28.4145H4Z" fill="white"/>
<path d="M18.4629 28.4145C18.3685 28.0973 18.31 27.7705 18.2885 27.4402C17.9177 27.848 17.4558 28.1623 16.9405 28.3577C16.3216 28.5978 15.6618 28.7146 14.9982 28.7013C14.0098 28.7884 13.0256 28.493 12.2484 27.8757C11.959 27.5993 11.7316 27.2646 11.5812 26.8936C11.4307 26.5227 11.3607 26.124 11.3758 25.724C11.3464 25.0796 11.4753 24.438 11.7513 23.855C11.9907 23.4029 12.3492 23.025 12.7879 22.7621C13.2783 22.4804 13.8124 22.2826 14.368 22.177C14.9797 22.0511 15.6439 21.9375 16.367 21.8312C16.8752 21.7928 17.3705 21.6524 17.8234 21.4184C17.9496 21.3162 18.0494 21.1849 18.1141 21.0358C18.1788 20.8868 18.2065 20.7243 18.195 20.5621C18.1834 20.4 18.1329 20.2431 18.0477 20.1047C17.9626 19.9663 17.8453 19.8505 17.7058 19.7672C17.2936 19.5495 16.8305 19.4465 16.3649 19.469C16.11 19.4449 15.8529 19.4715 15.6083 19.5471C15.3637 19.6227 15.1364 19.7459 14.9395 19.9096C14.6408 20.2332 14.4517 20.6427 14.399 21.0799H11.7275C11.7363 20.5543 11.8289 20.0334 12.0019 19.537C12.1679 19.0696 12.4489 18.6516 12.8188 18.3214C13.247 17.9567 13.7487 17.6885 14.2896 17.5349C15.0076 17.3357 15.751 17.2428 16.4959 17.2594C17.231 17.244 17.9642 17.3408 18.6702 17.5463C19.2076 17.7027 19.6996 17.9858 20.1049 18.3719C20.4744 18.7464 20.744 19.2077 20.8888 19.7135C21.0588 20.3058 21.1408 20.9199 21.1322 21.5361V28.4103L18.4629 28.4145ZM18.2669 23.0903C18.0835 23.2565 17.8638 23.3774 17.6253 23.4432C17.2258 23.5604 16.8202 23.6558 16.4103 23.7291C15.8051 23.8068 15.2248 24.0183 14.7115 24.3483C14.5549 24.4799 14.4313 24.6463 14.3507 24.8343C14.2701 25.0224 14.2347 25.2267 14.2473 25.4309C14.2473 26.2414 14.7108 26.6466 15.6377 26.6466C15.9886 26.6506 16.3368 26.5861 16.663 26.4567C17.2668 26.233 17.7589 25.7813 18.0338 25.1987C18.1731 24.9124 18.2437 24.5975 18.2401 24.2792L18.2669 23.0903Z" fill="white"/>
<path d="M30.3451 28.4145V21.8292C30.4125 21.2317 30.2639 20.6299 29.9264 20.1325C29.7293 19.9659 29.5007 19.8408 29.2541 19.7647C29.0076 19.6887 28.7483 19.6632 28.4916 19.6898C27.005 19.6898 26.2613 20.5223 26.2606 22.1873V28.4176H23.3881V17.5422H26.1297V19.1325C26.437 18.5469 26.9041 18.0605 27.4767 17.73C28.6024 17.1968 29.8882 17.1097 31.0754 17.4864C31.5006 17.6335 31.888 17.8728 32.21 18.1872C32.5357 18.5097 32.791 18.8962 32.9598 19.3224C33.1538 19.8189 33.2482 20.3488 33.2373 20.8818V28.4155L30.3451 28.4145Z" fill="white"/>
<path d="M43.066 26.9573C42.8442 27.4588 42.4474 27.8623 41.9499 28.0925C41.3699 28.3773 40.7301 28.5189 40.0841 28.5053C39.3007 28.531 38.5226 28.3686 37.8149 28.0316C37.2311 27.7377 36.7249 27.3098 36.3379 26.7828C35.9511 26.2456 35.6726 25.6381 35.5179 24.9944C35.3493 24.3154 35.2641 23.6185 35.2641 22.919C35.255 22.1321 35.3824 21.3496 35.6406 20.6062C35.8651 19.9522 36.2089 19.3454 36.6545 18.8167C37.0717 18.3343 37.5836 17.943 38.1584 17.6671C38.7383 17.3914 39.3729 17.2502 40.015 17.2542C40.6236 17.2242 41.2289 17.3605 41.7659 17.6487C42.3029 17.9369 42.7513 18.3661 43.0629 18.89V17.5412H45.9334V28.5249C45.9488 29.2705 45.8061 30.0109 45.5146 30.6973C45.2533 31.3005 44.8604 31.8376 44.3646 32.269C43.8583 32.698 43.2737 33.0247 42.6431 33.2309C41.9588 33.4537 41.2431 33.5649 40.5235 33.5601C39.8115 33.5674 39.103 33.4593 38.4255 33.2402C37.8167 33.0482 37.2505 32.7409 36.7577 32.3351C36.2926 31.9459 35.9189 31.4589 35.6633 30.9088C35.3899 30.3131 35.2538 29.6634 35.2652 29.0079H37.9387C37.9218 29.2968 37.9716 29.5857 38.084 29.8523C38.1965 30.119 38.3688 30.3562 38.5874 30.5456C39.084 30.9255 39.699 31.1171 40.3234 31.0864C41.0245 31.1091 41.7114 30.8861 42.2656 30.4558C42.5243 30.2546 42.7313 29.9946 42.8696 29.6974C43.0079 29.4002 43.0734 29.0744 43.0608 28.7468L43.066 26.9573ZM40.7019 26.2503C41.0361 26.2558 41.3671 26.1861 41.6707 26.0462C41.9742 25.9063 42.2423 25.6999 42.4553 25.4423C42.9503 24.8199 43.1992 24.0371 43.1547 23.243C43.1547 20.9134 42.3367 19.7493 40.7009 19.7507C39.065 19.7521 38.2481 20.8587 38.2502 23.0707C38.2065 23.8996 38.4514 24.7181 38.9433 25.3865C39.148 25.6586 39.4139 25.8787 39.7194 26.0287C40.025 26.1788 40.3616 26.2547 40.7019 26.2503Z" fill="white"/>
<path d="M50.812 23.7291C50.8168 24.447 51.0722 25.1406 51.5341 25.6899C51.7482 25.9307 52.0128 26.1212 52.3089 26.2478C52.605 26.3745 52.9254 26.4342 53.2473 26.4227C53.6835 26.4302 54.1137 26.3197 54.4923 26.1027C54.6628 26.0078 54.8122 25.8793 54.9317 25.725C55.0512 25.5707 55.1382 25.3938 55.1874 25.2049H58.1497C57.8686 26.2423 57.2457 27.1543 56.3819 27.7932C55.5032 28.4105 54.4494 28.7285 53.3762 28.7003C49.7552 28.7003 47.9443 26.7271 47.9436 22.7807C47.9325 22.0069 48.0525 21.2368 48.2985 20.503C48.5162 19.8565 48.8652 19.262 49.3237 18.7569C49.7811 18.2632 50.3458 17.8812 50.974 17.6402C51.6863 17.3703 52.4435 17.239 53.205 17.2532C53.9216 17.2046 54.6397 17.325 55.3013 17.6048C55.9629 17.8847 56.5496 18.316 57.0141 18.8642C57.979 20.2937 58.4344 22.0068 58.3066 23.727L50.812 23.7291ZM55.338 21.919C55.3317 21.5587 55.2619 21.2023 55.1318 20.8663C55.0201 20.5849 54.8508 20.33 54.6346 20.1181C54.4346 19.9195 54.1928 19.7679 53.927 19.6743C53.6657 19.5802 53.39 19.5324 53.1122 19.5329C52.8335 19.5299 52.5571 19.5843 52.3003 19.6928C52.0436 19.8013 51.8118 19.9615 51.6197 20.1635C51.1727 20.6403 50.9158 21.2645 50.8976 21.9179L55.338 21.919Z" fill="white"/>
<path d="M64.2838 28.4145H60.8387L64.4829 22.8694L60.9492 17.5422H64.4169L67.8392 22.8694L64.2838 28.4145Z" fill="white"/>
<path d="M71.8875 17.5422H68.5559L67.2955 19.6867L68.8282 22.0707L71.8875 17.5422Z" fill="white"/>
<path d="M72 28.4145L68.8273 23.6672L67.2048 26.1998L68.488 28.4104L72 28.4145Z" fill="white"/>
</svg>
